<?xml version="1.0" encoding="utf-8"?>
<!-- Generator: Adobe Illustrator 16.0.0, SVG Export Plug-In . SVG Version: 6.00 Build 0)  -->
<!DOCTYPE svg PUBLIC "-//W3C//DTD SVG 1.1//EN" "http://www.w3.org/Graphics/SVG/1.1/DTD/svg11.dtd">
<svg version="1.1" id="Capa_1" xmlns="http://www.w3.org/2000/svg" xmlns:xlink="http://www.w3.org/1999/xlink" x="0px" y="0px"
	 width="104.469px" height="120.631px" viewBox="0 0 104.469 120.631" enable-background="new 0 0 104.469 120.631"
	 xml:space="preserve">
<polygon fill="#00FFFF" points="52.234,120.631 0,90.473 0,30.157 52.234,0 104.469,30.157 104.469,90.473 "/>
<path fill="#FFFFFF" stroke="#FFFFFF" stroke-width="2" stroke-miterlimit="10" d="M84.239,80.104
	c0.046-0.191-0.012-0.395-0.149-0.533L54.279,49.76l0.116-0.336c0.637-1.84,0.96-3.771,0.96-5.74c0-9.688-7.883-17.57-17.571-17.57
	s-17.57,7.883-17.57,17.57c0,5.653,2.744,10.994,7.341,14.285l0.383,0.274l-0.199,0.428c-0.452,0.973-0.723,2.045-0.723,2.868
	v25.225c0,1.562,1.271,2.833,2.833,2.833h11.337c1.562,0,2.832-1.271,2.832-2.833V60.337l9.818,9.821
	c0.106,0.107,0.249,0.166,0.4,0.166h6.79v6.236c0,0.312,0.253,0.564,0.565,0.564h6.236v5.765c0,0.233,0.146,0.446,0.365,0.528
	c1.189,0.451,2.251,0.512,3.132,0.512l0.468-0.002c0.918,0,5.655-1.342,12.071-3.42C84.053,80.447,84.193,80.295,84.239,80.104z
	 M41.186,88.466H29.849c-0.938,0-1.702-0.764-1.702-1.702V61.539c0-1.092,0.637-2.768,1.363-3.586l4.924-5.538
	c0.291-0.329,0.676-0.51,1.083-0.51s0.792,0.181,1.084,0.509l4.923,5.539c0.727,0.816,1.363,2.492,1.363,3.586l0.001,25.225
	C42.888,87.702,42.124,88.466,41.186,88.466z M34.961,44.722l-0.111,0.665l-0.636-0.223c-1.595-0.555-2.667-2.061-2.667-3.747
	c0-2.188,1.781-3.97,3.971-3.97c2.188,0,3.969,1.781,3.969,3.97c0,1.687-1.07,3.192-2.666,3.747l-0.636,0.223l-0.111-0.665
	c-0.046-0.272-0.28-0.47-0.556-0.47C35.241,44.252,35.007,44.449,34.961,44.722z M81.746,80c-0.893,0.283-8.753,2.765-9.936,2.797
	l-0.242,0.002c-0.08,0-0.165,0-0.254,0c-0.525,0-1.189-0.02-1.917-0.191l-0.438-0.104v-5.943c0-0.312-0.254-0.564-0.565-0.564
	h-6.237v-6.237c0-0.312-0.253-0.565-0.564-0.565H54.47L44.398,59.118c-0.13-0.13-0.316-0.19-0.5-0.155l-0.43,0.076l-0.186-0.395
	c-0.272-0.576-0.588-1.076-0.914-1.443l-1.115-1.253l0.787-0.286c2.18-0.794,4.106-2.158,5.572-3.944
	c1.886-2.296,2.924-5.2,2.924-8.175c0-7.109-5.784-12.895-12.895-12.895c-7.109,0-12.894,5.785-12.894,12.895
	c0,3.252,1.214,6.357,3.418,8.744c0.212,0.229,0.57,0.244,0.799,0.031c0.229-0.211,0.243-0.569,0.032-0.799
	c-2.012-2.179-3.119-5.012-3.119-7.977c0-6.487,5.277-11.765,11.764-11.765s11.764,5.277,11.764,11.765
	c0,5.292-3.564,9.959-8.668,11.349l-0.34,0.093l-2.953-3.32c-0.276-0.312-0.624-0.558-1.006-0.71l-0.357-0.144v-4.304l0.455-0.093
	c2.364-0.482,4.08-2.584,4.08-4.998c0-2.812-2.287-5.1-5.1-5.1s-5.101,2.287-5.101,5.1c0,2.414,1.716,4.516,4.08,4.998l0.454,0.093
	v4.304l-0.357,0.144c-0.38,0.151-0.729,0.397-1.006,0.71l-5.019,5.645l-0.416-0.301c-4.264-3.083-6.81-8.063-6.81-13.324
	c0-9.064,7.376-16.439,16.44-16.439c9.065,0,16.44,7.375,16.44,16.439c0,2.074-0.382,4.096-1.133,6.008
	c-0.082,0.209-0.032,0.447,0.127,0.606l29.419,29.419L81.746,80z"/>
</svg>
