<?xml version="1.0" encoding="utf-8"?>
<!-- Generator: Adobe Illustrator 16.0.0, SVG Export Plug-In . SVG Version: 6.00 Build 0)  -->
<!DOCTYPE svg PUBLIC "-//W3C//DTD SVG 1.1//EN" "http://www.w3.org/Graphics/SVG/1.1/DTD/svg11.dtd">
<svg version="1.1" id="Capa_1" xmlns="http://www.w3.org/2000/svg" xmlns:xlink="http://www.w3.org/1999/xlink" x="0px" y="0px"
	 width="174px" height="138.51px" viewBox="0 0 174 138.51" enable-background="new 0 0 174 138.51" xml:space="preserve">
<path fill="#00FFFF" d="M103.67,123.05L57.75,94.9c0.08-0.35,0.12-0.71,0.12-1.09v-1.66c0-2.14-1.39-3.97-3.32-4.62v-0.86
	c0-2.16-1.4-4.03-3.49-4.66c-2.83-0.85-4.8-3.51-4.8-6.46c0-1.75,0.71-3.44,2.01-4.73c1.3-1.3,2.98-2.01,4.73-2.01h0
	c3.72,0,6.74,3.03,6.74,6.75c0,0.86,0.7,1.55,1.55,1.55s1.55-0.7,1.55-1.55c0-5.43-4.42-9.85-9.85-9.85h0
	c-2.58,0-5.05,1.04-6.93,2.92c-1.88,1.88-2.92,4.35-2.92,6.93c0,4.32,2.89,8.2,7.02,9.44c0.77,0.23,1.28,0.91,1.28,1.69v0.86
	c-1.93,0.65-3.32,2.47-3.32,4.62v1.66c0,0.38,0.04,0.74,0.12,1.09L2.33,123.05C0.89,123.92,0,125.52,0,127.2v3.12
	c0,1.77,1.44,3.21,3.21,3.21h3.43v1.77c0,1.77,1.44,3.21,3.21,3.21h8.3c1.77,0,3.21-1.44,3.21-3.21v-1.77h53.21
	c0.86,0,1.55-0.69,1.55-1.55c0-0.86-0.7-1.55-1.55-1.55H20.96c-0.55-0.99-1.6-1.66-2.81-1.66h-8.3c-1.21,0-2.26,0.67-2.81,1.66H3.21
	c-0.06,0-0.11-0.05-0.11-0.11v-3.12c0-0.61,0.32-1.19,0.84-1.51l45.93-28.15c0.85,0.71,1.94,1.14,3.12,1.14s2.28-0.43,3.12-1.14
	l45.93,28.15c0.52,0.32,0.84,0.9,0.84,1.51v3.12c0,0.06-0.05,0.11-0.11,0.11h-3.83c-0.55-0.99-1.6-1.66-2.81-1.66h-8.3
	c-1.21,0-2.26,0.67-2.81,1.66h-3.83c-0.86,0-1.55,0.7-1.55,1.55s0.7,1.55,1.55,1.55h3.43v1.77c0,1.77,1.44,3.21,3.21,3.21h8.3
	c1.77,0,3.21-1.44,3.21-3.21v-1.77h3.43c1.77,0,3.21-1.44,3.21-3.21v-3.12C106,125.52,105.11,123.92,103.67,123.05z M9.74,131.98
	c0-0.06,0.05-0.11,0.11-0.11h8.3c0.06,0,0.11,0.05,0.11,0.11v0c0,0,0,0,0,0v3.32c0,0.06-0.05,0.11-0.11,0.11h-8.3
	c-0.06,0-0.11-0.05-0.11-0.11L9.74,131.98L9.74,131.98z M54.77,93.81c0,0.97-0.79,1.77-1.77,1.77c-0.97,0-1.77-0.79-1.77-1.77v-1.66
	c0-0.97,0.79-1.77,1.77-1.77c0.97,0,1.77,0.79,1.77,1.77V93.81z M96.15,135.4h-8.3c-0.06,0-0.11-0.05-0.11-0.11v-3.32
	c0-0.06,0.05-0.11,0.11-0.11h8.3c0.06,0,0.11,0.05,0.11,0.1v0c0,0,0,0.01,0,0.01v3.31C96.26,135.36,96.21,135.4,96.15,135.4z"/>
<g>
	<polygon fill="#00FFFF" points="145.86,3.12 145.86,3.12 145.86,3.12 	"/>
	<path fill="#00FFFF" d="M96.7,73.05c5.48,6.78,12.6,10.52,20.07,10.52c7.46,0,14.58-3.73,20.04-10.51
		c5.23-6.49,8.23-15.09,8.23-23.58v-7.87l0.04-0.11c5.6-17.78,3.57-32.73,1.77-36.88l-0.02-0.05c-0.01-0.02-0.02-0.05-0.04-0.07
		l0.65-0.39l0,0l-0.66,0.36c-0.02-0.03-0.03-0.04-0.04-0.06l-0.14-0.18c-0.01-0.01-0.02-0.02-0.03-0.03l-0.03-0.03
		c-0.02-0.02-0.04-0.04-0.07-0.05l-0.03-0.02c-0.02-0.01-0.03-0.02-0.05-0.04l-0.04-0.02c-0.02-0.01-0.05-0.03-0.07-0.04l-0.43-0.11
		l-0.05,0c-0.01,0-0.04,0-0.06,0l-0.04,0c-0.03,0-0.05,0-0.08,0.01l-0.06,0.01c-4.98,0.69-10.88-0.49-17.14-1.75
		c-10.26-2.06-20.87-4.19-29.03,1.63l-0.27,0.19L98.79,3.9c-0.08-0.02-0.16-0.02-0.24-0.02c-8.19,0-13.91,6.84-13.91,16.65
		c0,7.89,3.4,22.9,3.79,24.59l0.02,0.08v4.27C88.44,57.95,91.45,66.55,96.7,73.05z M142.69,49.48c0,7.96-2.81,16.02-7.71,22.1
		c-5,6.21-11.47,9.63-18.21,9.63c-6.74,0-13.21-3.42-18.23-9.64c-4.92-6.09-7.74-14.15-7.74-22.11v-2.2c0-6.89,3.71-15.9,5.3-19.46
		l0.18-0.39l0.43-0.05c13.51-1.59,24.26,0.01,30.91,1.64c5.9,1.44,9.78,3.17,11.17,3.85l0.26,0.13l3.66,8.7V49.48z M86.99,20.52
		c0-9.87,5.8-14.29,11.55-14.29c0.11,0,0.22-0.02,0.33-0.05l0.21-0.06l0.21,0.06c0.36,0.1,0.74,0.03,1.04-0.19
		c7.37-5.6,17.66-3.53,27.6-1.54c5.14,1.03,9.97,2,14.43,2c0.67,0,1.35-0.02,2.01-0.07l0.62-0.05l0.17,0.6
		c1.21,4.35,2.37,15.31-0.92,28.82l-0.54,2.23l-2.65-6.32c-0.1-0.24-0.29-0.45-0.52-0.57c-0.71-0.39-17.56-9.48-45.15-5.94
		l-0.17,0.03c-0.02,0.01-0.04,0.01-0.06,0.02c-0.13,0.04-0.27,0.11-0.39,0.2c-0.07,0.05-0.12,0.1-0.17,0.16l-0.13,0.18
		c-0.01,0.01-0.01,0.02-0.02,0.03l-0.02,0.05l-0.04,0.05c-0.34,0.72-2.38,5.07-3.97,10.3l-0.9,2.94l-0.57-3.02
		C88.06,31.33,86.99,24.77,86.99,20.52z"/>
</g>
<path fill="#00FFFF" d="M167.02,122.24c3.85,0,6.98-2.81,6.98-6.26v-4.8c0-4.01-1.27-8.07-3.57-11.44v0c-2.5-3.67-6-6.22-10.09-7.36
	c-0.02-0.01-0.05-0.01-0.09-0.02l-15.72-3.29l-4.32-6.56c-0.01-0.02-0.03-0.04-0.04-0.06c-0.5-0.67-1.27-1.12-2.11-1.22
	c-0.84-0.1-1.69,0.15-2.34,0.68l-0.04,0.03l-18.93,16.29l-18.94-16.3c-0.68-0.55-1.53-0.8-2.37-0.7s-1.61,0.55-2.12,1.22l-0.04,0.06
	l-4.32,6.55l-15.73,3.29c-0.02,0-0.05,0.01-0.08,0.02c-4.1,1.15-7.59,3.7-10.09,7.36c-2.3,3.37-3.57,7.43-3.57,11.44v4.8
	c0,3.45,3.13,6.26,6.98,6.26h56.15H167.02z M137.84,83.2l4.55,6.9l-14.18,19.49l-9.73-9.73L137.84,83.2z M95.66,83.2l19.36,16.66
	l-9.73,9.73L91.11,90.09L95.66,83.2z M109.98,119.88H66.48c0,0,0,0,0,0c-1.2,0-2.34-0.39-3.21-1.09c-0.91-0.74-1.41-1.74-1.41-2.81
	v-4.8c0-6.53,4.08-14.3,11.88-16.52l0.05-0.01l15.39-3.22l15.02,20.65c0.2,0.28,0.52,0.46,0.86,0.48c0.02,0,0.06,0,0.09,0
	c0.31,0,0.61-0.12,0.83-0.34l3.75-3.75l0.44,1.03c0.27,0.64,0.67,1.21,1.18,1.7l0.3,0.29L109.98,119.88z M112.39,119.88l1.47-7.35
	l0.65,0.03c0.1,0,0.2,0.01,0.31,0.01h3.87c0.1,0,0.21,0,0.31-0.01l0.65-0.03l1.47,7.35H112.39z M121.37,107.53
	c0,1.48-1.21,2.69-2.69,2.69h-3.87c-1.48,0-2.69-1.21-2.69-2.69v-1.45l4.62-4.62l4.62,4.62V107.53z M122.14,111.2
	c0.51-0.49,0.91-1.05,1.19-1.7l0.44-1.03l3.75,3.75c0.25,0.25,0.58,0.37,0.94,0.34c0.33-0.03,0.65-0.2,0.85-0.48l15.02-20.65
	l15.45,3.23c7.8,2.22,11.88,9.99,11.88,16.52v4.8c0,2.15-2.07,3.9-4.62,3.9h-43.5l-1.68-8.4L122.14,111.2z"/>
</svg>
