<?xml version="1.0" encoding="utf-8"?>
<!-- Generator: Adobe Illustrator 16.0.0, SVG Export Plug-In . SVG Version: 6.00 Build 0)  -->
<!DOCTYPE svg PUBLIC "-//W3C//DTD SVG 1.1//EN" "http://www.w3.org/Graphics/SVG/1.1/DTD/svg11.dtd">
<svg version="1.1" id="Capa_1" xmlns="http://www.w3.org/2000/svg" xmlns:xlink="http://www.w3.org/1999/xlink" x="0px" y="0px"
	 width="104.47px" height="120.631px" viewBox="0 0 104.47 120.631" enable-background="new 0 0 104.47 120.631"
	 xml:space="preserve">
<polygon fill="#00FFFF" points="52.235,120.631 0,90.473 0,30.157 52.235,0 104.47,30.157 104.47,90.473 "/>
<path fill="#FFFFFF" stroke="#FFFFFF" stroke-width="2" stroke-miterlimit="10" d="M77.538,84.074
	c0.018-0.143-0.021-0.283-0.109-0.397l-7.035-9.045l0.753-0.226c1.999-0.598,3.735-1.883,4.891-3.62
	c1.423-2.461,0.746-5.61,0.092-8.657c-0.413-1.63-0.663-3.324-0.74-5.02c0.077-1.74,0.327-3.443,0.745-5.094
	c0.65-3.051,1.319-6.188-0.114-8.66c-1.495-2.584-4.611-3.571-7.625-4.526c-1.565-0.431-3.104-1.034-4.562-1.788
	c-1.362-0.881-2.604-1.886-3.721-3.006c-2.223-2.062-4.753-4.41-7.877-4.41c-3.122,0-5.657,2.35-7.895,4.424
	c-1.1,1.104-2.334,2.105-3.658,2.965c-1.495,0.776-3.041,1.381-4.626,1.816c-2.997,0.951-6.109,1.938-7.604,4.521
	c-1.44,2.489-0.764,5.639-0.11,8.685c0.413,1.631,0.663,3.326,0.739,5.025c-0.076,1.74-0.327,3.441-0.744,5.092
	c-0.65,3.052-1.319,6.188,0.113,8.662c1.141,1.713,2.877,2.994,4.878,3.59l0.755,0.226l-7.042,9.046
	c-0.182,0.234-0.14,0.574,0.095,0.756c0.11,0.086,0.255,0.127,0.399,0.108l8.156-1.019l2.027,7.094
	c0.056,0.196,0.215,0.343,0.415,0.381c0.183,0.036,0.405-0.04,0.527-0.197l7.246-9.32l0.432,0.419
	c1.593,1.552,3.69,2.491,5.908,2.647c2.203-0.157,4.291-1.097,5.884-2.647l0.432-0.419l7.246,9.316
	c0.122,0.158,0.335,0.238,0.531,0.201c0.196-0.038,0.355-0.185,0.412-0.381l2.026-7.092l8.158,1.018
	c0.144,0.019,0.283-0.02,0.397-0.108C77.447,84.344,77.521,84.217,77.538,84.074z M38.462,89.301l-1.863-6.52
	c-0.074-0.258-0.313-0.414-0.587-0.385l-7.317,0.914l6.434-8.271l0.954,0.306c1.56,0.429,3.097,1.03,4.555,1.783
	c1.363,0.882,2.605,1.888,3.721,3.006l0.718,0.663L38.462,89.301z M52.235,83.469c-2.701,0-4.868-2.01-7.162-4.138
	c-1.189-1.188-2.498-2.239-3.897-3.136c-1.488-0.777-3.099-1.413-4.757-1.873c-2.965-0.941-5.753-1.826-7.037-4.045
	c-1.23-2.129-0.627-4.942,0.012-7.92c0.438-1.742,0.694-3.518,0.766-5.295c-0.07-1.737-0.326-3.508-0.761-5.23
	c-0.643-2.996-1.247-5.811-0.016-7.939c1.29-2.222,4.071-3.104,7.018-4.039c1.677-0.467,3.293-1.105,4.815-1.902
	c1.363-0.876,2.665-1.924,3.841-3.1c2.308-2.139,4.478-4.15,7.179-4.15s4.868,2.01,7.162,4.137c1.189,1.188,2.497,2.24,3.896,3.137
	c1.49,0.777,3.1,1.412,4.757,1.873c2.965,0.94,5.753,1.825,7.037,4.045c1.231,2.129,0.628,4.941-0.011,7.919
	c-0.438,1.741-0.695,3.519-0.767,5.294c0.071,1.738,0.327,3.508,0.761,5.232c0.644,2.996,1.246,5.809,0.016,7.938
	c-1.289,2.222-4.072,3.104-7.018,4.04c-1.676,0.465-3.291,1.104-4.816,1.902c-1.363,0.877-2.665,1.924-3.84,3.099
	C57.105,81.457,54.935,83.469,52.235,83.469z M68.461,82.396c-0.267-0.03-0.512,0.131-0.585,0.387l-1.868,6.517l-6.612-8.501
	l0.733-0.679c1.101-1.104,2.334-2.104,3.658-2.964c1.495-0.776,3.042-1.381,4.626-1.816l0.933-0.3l6.436,8.271L68.461,82.396z"/>
<path fill="#FFFFFF" stroke="#FFFFFF" stroke-width="2" stroke-miterlimit="10" d="M52.234,38.239
	c-10.391,0-18.845,8.454-18.845,18.845c0,10.393,8.454,18.846,18.846,18.846c10.391,0,18.846-8.453,18.846-18.846
	C71.068,46.705,62.614,38.251,52.234,38.239z M52.235,74.854c-9.798,0-17.769-7.971-17.769-17.77
	c0-9.797,7.971-17.768,17.769-17.768c9.797,0,17.769,7.971,17.769,17.768C69.992,66.871,62.021,74.842,52.235,74.854z"/>
<g>
	<path fill="#FFFFFF" stroke="#FFFFFF" stroke-width="2" stroke-miterlimit="10" d="M64.469,54.221l-7.201,5.23l0,0
		c-0.189,0.138-0.268,0.381-0.195,0.604l2.752,8.467c0.554-0.417,0.774-1.123,0.555-1.775l-2.161-6.654l5.653-4.106
		C64.438,55.572,64.657,54.857,64.469,54.221z"/>
	<path fill="#FFFFFF" stroke="#FFFFFF" stroke-width="2" stroke-miterlimit="10" d="M52.554,63.338
		c-0.189-0.137-0.444-0.136-0.633,0l-7.204,5.233c0.124,0.085,0.263,0.154,0.414,0.203c0.488,0.159,1.031,0.073,1.449-0.229
		l5.656-4.105l5.654,4.106c0.56,0.415,1.304,0.423,1.866,0.024L52.554,63.338z"/>
	<path fill="#FFFFFF" stroke="#FFFFFF" stroke-width="2" stroke-miterlimit="10" d="M50.702,46.419l-2.161,6.646h-6.989
		c-0.432,0-0.838,0.168-1.143,0.473c-0.174,0.173-0.304,0.379-0.382,0.604h8.904c0.234,0,0.439-0.148,0.512-0.371l2.75-8.462
		c-0.155,0.005-0.31,0.031-0.461,0.081C51.247,45.548,50.861,45.934,50.702,46.419z"/>
	<path fill="#FFFFFF" stroke="#FFFFFF" stroke-width="2" stroke-miterlimit="10" d="M64.226,53.729
		c-0.302-0.416-0.79-0.664-1.305-0.664h-6.983l-2.167-6.646c-0.135-0.409-0.42-0.742-0.806-0.937
		c-0.217-0.109-0.45-0.168-0.685-0.175l2.749,8.461c0.072,0.223,0.278,0.373,0.512,0.373h8.902
		C64.393,53.997,64.32,53.857,64.226,53.729z"/>
	<path fill="#FFFFFF" stroke="#FFFFFF" stroke-width="2" stroke-miterlimit="10" d="M44.65,68.522l2.75-8.468
		c0.073-0.223-0.006-0.465-0.195-0.603l-7.203-5.233c-0.044,0.146-0.066,0.302-0.066,0.459c0,0.516,0.248,1.004,0.665,1.308
		l5.652,4.106l-2.159,6.646C43.876,67.408,44.12,68.118,44.65,68.522z"/>
</g>
</svg>
