<?xml version="1.0" encoding="utf-8"?>
<!-- Generator: Adobe Illustrator 16.0.0, SVG Export Plug-In . SVG Version: 6.00 Build 0)  -->
<!DOCTYPE svg PUBLIC "-//W3C//DTD SVG 1.1//EN" "http://www.w3.org/Graphics/SVG/1.1/DTD/svg11.dtd">
<svg version="1.1" id="Capa_1" xmlns="http://www.w3.org/2000/svg" xmlns:xlink="http://www.w3.org/1999/xlink" x="0px" y="0px"
	 width="183.42px" height="211.52px" viewBox="0 0 183.42 211.52" enable-background="new 0 0 183.42 211.52" xml:space="preserve">
<polygon fill="none" stroke="#00FFFF" stroke-width="2" stroke-miterlimit="10" points="91.95,210.36 1.24,158.27 1,53.67 
	91.47,1.15 182.18,53.25 182.42,157.85 "/>
<path fill="#00FFFF" d="M142.92,111.46L96.99,83.32c0.08-0.35,0.12-0.71,0.12-1.09v-1.66c0-2.14-1.39-3.97-3.32-4.62v-0.86
	c0-2.16-1.4-4.03-3.49-4.66c-2.83-0.85-4.8-3.51-4.8-6.46c0-1.75,0.71-3.44,2.01-4.73c1.3-1.3,2.98-2.01,4.73-2.01h0
	c3.72,0,6.75,3.03,6.75,6.75c0,0.86,0.7,1.55,1.55,1.55s1.55-0.7,1.55-1.55c0-5.43-4.42-9.85-9.85-9.85h0
	c-2.58,0-5.04,1.04-6.93,2.92c-1.88,1.88-2.92,4.35-2.92,6.93c0,4.32,2.89,8.2,7.02,9.44c0.77,0.23,1.28,0.91,1.28,1.68v0.86
	c-1.93,0.65-3.32,2.47-3.32,4.62v1.66c0,0.37,0.04,0.74,0.12,1.09l-45.93,28.15c-1.44,0.88-2.33,2.47-2.33,4.15v3.12
	c0,1.77,1.44,3.21,3.21,3.21h3.43v1.77c0,1.77,1.44,3.21,3.21,3.21h8.3c1.77,0,3.21-1.44,3.21-3.21v-1.77h53.21
	c0.86,0,1.55-0.69,1.55-1.55c0-0.86-0.7-1.55-1.55-1.55H60.2c-0.55-0.99-1.6-1.66-2.81-1.66h-8.3c-1.21,0-2.26,0.67-2.81,1.66h-3.83
	c-0.06,0-0.11-0.05-0.11-0.11v-3.12c0-0.61,0.32-1.19,0.84-1.51l45.93-28.15c0.85,0.71,1.94,1.14,3.12,1.14s2.28-0.43,3.12-1.14
	l45.93,28.15c0.52,0.32,0.84,0.9,0.84,1.51v3.12c0,0.06-0.05,0.11-0.11,0.11h-3.83c-0.55-0.99-1.6-1.66-2.81-1.66h-8.3
	c-1.21,0-2.26,0.67-2.81,1.66h-3.83c-0.86,0-1.55,0.7-1.55,1.55c0,0.86,0.7,1.55,1.55,1.55h3.43v1.77c0,1.77,1.44,3.21,3.21,3.21
	h8.3c1.77,0,3.21-1.44,3.21-3.21v-1.77h3.43c1.77,0,3.21-1.44,3.21-3.21v-3.12C145.24,113.94,144.35,112.34,142.92,111.46z
	 M48.98,120.4c0-0.06,0.05-0.11,0.11-0.11h8.3c0.06,0,0.11,0.05,0.11,0.11v0c0,0,0,0,0,0v3.32c0,0.06-0.05,0.11-0.11,0.11h-8.3
	c-0.06,0-0.11-0.05-0.11-0.11L48.98,120.4L48.98,120.4z M94.01,82.23c0,0.97-0.79,1.77-1.77,1.77c-0.97,0-1.77-0.79-1.77-1.77v-1.66
	c0-0.97,0.79-1.77,1.77-1.77c0.97,0,1.77,0.79,1.77,1.77V82.23z M135.39,123.82h-8.3c-0.06,0-0.11-0.05-0.11-0.11v-3.32
	c0-0.06,0.05-0.11,0.11-0.11h8.3c0.06,0,0.11,0.05,0.11,0.1v0c0,0,0,0.01,0,0.01v3.31C135.5,123.78,135.45,123.82,135.39,123.82z"/>
</svg>
