<?xml version="1.0" encoding="utf-8"?>
<!-- Generator: Adobe Illustrator 16.0.0, SVG Export Plug-In . SVG Version: 6.00 Build 0)  -->
<!DOCTYPE svg PUBLIC "-//W3C//DTD SVG 1.1//EN" "http://www.w3.org/Graphics/SVG/1.1/DTD/svg11.dtd">
<svg version="1.1" id="Capa_1" xmlns="http://www.w3.org/2000/svg" xmlns:xlink="http://www.w3.org/1999/xlink" x="0px" y="0px"
	 width="56px" height="56px" viewBox="0 0 56 56" enable-background="new 0 0 56 56" xml:space="preserve">
<circle fill="#FF806D" cx="28" cy="28" r="28"/>
<path fill="#FFFFFF" d="M28.813,39.13c-4.159-0.14-7.372-0.229-10.584-0.369c-0.892-0.039-1.806-0.133-2.658-0.377
	c-1.824-0.523-2.969-1.738-3.249-3.664c-0.52-3.574-0.474-7.165-0.277-10.757c0.056-1.032,0.236-2.056,0.353-3.086
	c0.218-1.942,2.071-3.425,3.907-3.54c3.365-0.209,6.734-0.43,10.104-0.463c3.652-0.036,7.308,0.122,10.96,0.231
	c0.894,0.026,1.792,0.143,2.671,0.31c1.973,0.374,3.094,1.568,3.443,3.552c0.467,2.646,0.584,5.319,0.485,7.993
	c-0.073,1.989-0.243,3.981-0.501,5.954c-0.261,1.999-1.789,3.463-3.815,3.606C35.731,38.8,31.804,38.968,28.813,39.13z
	 M24.904,22.997c0,3.328,0,6.544,0,9.874c2.703-1.661,5.332-3.277,8.033-4.937C30.225,26.266,27.604,24.655,24.904,22.997z"/>
</svg>
