<?xml version="1.0" encoding="utf-8"?>
<!-- Generator: Adobe Illustrator 16.0.0, SVG Export Plug-In . SVG Version: 6.00 Build 0)  -->
<!DOCTYPE svg PUBLIC "-//W3C//DTD SVG 1.1//EN" "http://www.w3.org/Graphics/SVG/1.1/DTD/svg11.dtd">
<svg version="1.1" id="Capa_1" xmlns="http://www.w3.org/2000/svg" xmlns:xlink="http://www.w3.org/1999/xlink" x="0px" y="0px"
	 width="104.469px" height="120.631px" viewBox="0 0 104.469 120.631" enable-background="new 0 0 104.469 120.631"
	 xml:space="preserve">
<polygon fill="#00FFFF" points="52.234,120.631 0,90.473 0,30.157 52.234,0 104.469,30.157 104.469,90.473 "/>
<g>
	<path fill="#FFFFFF" stroke="#FFFFFF" stroke-width="2" stroke-miterlimit="10" d="M48.334,83.332h3.223l6.894,7.041
		c0.199,0.203,0.518,0.275,0.784,0.183c0.274-0.097,0.47-0.345,0.498-0.634l0.654-6.59h16.048c3.749,0,6.8-3.049,6.8-6.798V61.519
		c0-3.749-3.051-6.798-6.8-6.798H55.81l0.075-0.398c0.066-0.354,0.1-0.713,0.1-1.068V40.832c0-3.173-2.581-5.754-5.754-5.754H26.987
		c-3.172,0-5.753,2.581-5.753,5.754v12.422c0,3.172,2.581,5.752,5.753,5.752h3.927l-0.209,4.847
		c-0.012,0.282,0.133,0.544,0.378,0.683c0.24,0.138,0.55,0.129,0.78-0.021l8.511-5.508h1.627l-0.141,0.438
		c-0.216,0.672-0.325,1.37-0.325,2.075v15.016C41.535,80.283,44.586,83.332,48.334,83.332z M42.85,57.506h-2.697
		c-0.145,0-0.285,0.041-0.407,0.12l-7.478,4.84l0.179-4.178c0.009-0.204-0.067-0.404-0.208-0.552
		c-0.141-0.146-0.338-0.23-0.541-0.23h-4.71c-2.345,0-4.253-1.908-4.253-4.252V40.832c0-2.346,1.908-4.254,4.253-4.254h23.244
		c2.345,0,4.253,1.908,4.253,4.254v12.422c0,0.419-0.061,0.832-0.181,1.229l-0.071,0.238h-5.898c-2.12,0-4.082,0.967-5.384,2.654
		L42.85,57.506z M43.036,61.519c0-2.921,2.377-5.298,5.298-5.298h28.101c2.922,0,5.3,2.377,5.3,5.298v15.016
		c0,2.921-2.378,5.298-5.3,5.298H59.707c-0.387,0-0.708,0.291-0.746,0.676l-0.562,5.668l-5.99-6.119
		c-0.141-0.143-0.336-0.225-0.536-0.225h-3.538c-2.921,0-5.298-2.377-5.298-5.298V61.519z"/>
	<path fill="#FFFFFF" stroke="#FFFFFF" stroke-width="2" stroke-miterlimit="10" d="M39.291,48.697c0-1.012,0.523-1.938,1.402-2.475
		c1.267-0.775,1.996-2.18,1.904-3.664c-0.125-2.005-1.73-3.61-3.734-3.734c-1.117-0.07-2.178,0.312-2.99,1.075
		c-0.801,0.753-1.26,1.813-1.26,2.913c0,0.375,0.306,0.681,0.682,0.681c0.375,0,0.681-0.306,0.681-0.681
		c0-0.734,0.295-1.416,0.831-1.92c0.493-0.465,1.128-0.715,1.802-0.715c0.057,0,0.113,0.002,0.17,0.006
		c1.299,0.08,2.379,1.16,2.46,2.459c0.061,0.98-0.421,1.906-1.256,2.418c-1.286,0.787-2.055,2.146-2.055,3.637
		c0,0.376,0.307,0.682,0.682,0.682C38.985,49.379,39.291,49.073,39.291,48.697z"/>
	<path fill="#FFFFFF" stroke="#FFFFFF" stroke-width="2" stroke-miterlimit="10" d="M63.135,71.201v-9.188
		c0-0.414-0.336-0.75-0.75-0.75s-0.75,0.336-0.75,0.75v9.188c0,0.414,0.336,0.751,0.75,0.751S63.135,71.615,63.135,71.201z"/>
	<circle fill="#FFFFFF" stroke="#FFFFFF" stroke-width="2" stroke-miterlimit="10" cx="62.384" cy="76.066" r="0.75"/>
	<circle fill="#FFFFFF" stroke="#FFFFFF" stroke-width="2" stroke-miterlimit="10" cx="38.608" cy="52.352" r="0.681"/>
</g>
</svg>
