<?xml version="1.0" encoding="utf-8"?>
<!-- Generator: Adobe Illustrator 16.0.0, SVG Export Plug-In . SVG Version: 6.00 Build 0)  -->
<!DOCTYPE svg PUBLIC "-//W3C//DTD SVG 1.1//EN" "http://www.w3.org/Graphics/SVG/1.1/DTD/svg11.dtd">
<svg version="1.1" id="Capa_1" xmlns="http://www.w3.org/2000/svg" xmlns:xlink="http://www.w3.org/1999/xlink" x="0px" y="0px"
	 width="152.94px" height="112.34px" viewBox="0 0 152.94 112.34" enable-background="new 0 0 152.94 112.34" xml:space="preserve">
<path fill="#00FFFF" d="M150.73,55.58l-37.05-13.75c0-1.53,0-36.32,0-37.83c0-2.2-1.79-4-4-4C108.69,0,5.44,0,3.99,0
	C1.79,0,0,1.79,0,4l0,0v89.35c0,2.2,1.79,4,3.99,4h32.85c1.24,0,2.24-1,2.24-2.24c0-1.24-1-2.24-2.24-2.24H4.48V21.15
	c1.9,0,103.12,0,104.71,0v20.68l-9.86,3.66L72.15,55.58c-1.32,0.49-2.22,1.73-2.22,3.19l0,0l0,0c0,1.44,0.87,2.69,2.22,3.19
	l2.64,0.98v29.93H47.3c-1.24,0-2.24,1-2.24,2.24s1,2.24,2.24,2.24h27.49v0.74c-2.83,1.02-4.86,3.74-4.86,6.91
	c0,4.05,3.3,7.35,7.35,7.35c4.05,0,7.35-3.3,7.35-7.35c0-3.36-2.27-6.2-5.36-7.07v-0.58h7.4c0.22,2.67,2.46,4.78,5.19,4.78
	c1.72,0,37.4,0,39.11,0c2.9,0,5.26-2.36,5.26-5.26v-7.91c0-1.24-1-2.24-2.24-2.24c-1.24,0-2.24,1-2.24,2.24v7.91
	c0,0.43-0.35,0.78-0.78,0.78h-17.29V75.7L131.75,69v9.51c0,1.24,1,2.24,2.24,2.24c1.24,0,2.24-1,2.24-2.24V67.33l14.5-5.38
	c1.35-0.5,2.22-1.75,2.22-3.19C152.94,57.33,152.07,56.08,150.73,55.58z M80.15,104.99c0,1.58-1.29,2.87-2.87,2.87
	c-1.58,0-2.87-1.29-2.87-2.87c0-1.58,1.29-2.87,2.87-2.87C78.86,102.12,80.15,103.41,80.15,104.99z M4.48,16.66V4.48h11.84v12.18
	H4.48z M20.8,16.66V4.48h88.4v12.18H20.8z M79.27,64.6l7.38,2.74v25.53h-7.38V64.6z M91.13,96.91L91.13,96.91V69l18.07,6.71v21.94
	H91.86C91.45,97.64,91.13,97.32,91.13,96.91z M111.44,71.75c-1.55-0.57-32.96-12.23-35-12.99l35-12.99l35,12.99
	C146.33,58.8,126.46,66.17,111.44,71.75z"/>
<path fill="#00FFFF" d="M17.57,34.45h71.31c1.24,0,2.24-1,2.24-2.24c0-1.24-1-2.24-2.24-2.24H17.57c-1.24,0-2.24,1-2.24,2.24
	C15.33,33.44,16.34,34.45,17.57,34.45z"/>
<path fill="#00FFFF" d="M17.57,46.47h59.45c1.24,0,2.24-1,2.24-2.24c0-1.24-1-2.24-2.24-2.24H17.57c-1.24,0-2.24,1-2.24,2.24
	C15.33,45.47,16.34,46.47,17.57,46.47z"/>
<path fill="#00FFFF" d="M17.57,58.49h42.48c1.24,0,2.24-1,2.24-2.24s-1-2.24-2.24-2.24H17.57c-1.24,0-2.24,1-2.24,2.24
	S16.34,58.49,17.57,58.49z"/>
<path fill="#00FFFF" d="M17.57,70.52h42.48c1.24,0,2.24-1,2.24-2.24c0-1.24-1-2.24-2.24-2.24H17.57c-1.24,0-2.24,1-2.24,2.24
	C15.33,69.52,16.34,70.52,17.57,70.52z"/>
<path fill="#00FFFF" d="M17.57,82.54h42.48c1.24,0,2.24-1,2.24-2.24s-1-2.24-2.24-2.24H17.57c-1.24,0-2.24,1-2.24,2.24
	S16.34,82.54,17.57,82.54z"/>
</svg>
