<?xml version="1.0" encoding="utf-8"?>
<!-- Generator: Adobe Illustrator 16.0.0, SVG Export Plug-In . SVG Version: 6.00 Build 0)  -->
<!DOCTYPE svg PUBLIC "-//W3C//DTD SVG 1.1//EN" "http://www.w3.org/Graphics/SVG/1.1/DTD/svg11.dtd">
<svg version="1.1" id="Capa_1" xmlns="http://www.w3.org/2000/svg" xmlns:xlink="http://www.w3.org/1999/xlink" x="0px" y="0px"
	 width="183.42px" height="211.52px" viewBox="0 0 183.42 211.52" enable-background="new 0 0 183.42 211.52" xml:space="preserve">
<polygon fill="none" stroke="#00FFFF" stroke-width="2" stroke-miterlimit="10" points="91.95,210.36 1.24,158.27 1,53.67 
	91.47,1.15 182.18,53.25 182.42,157.85 "/>
<g>
	<path fill="#00FFFF" d="M134.66,93.91c0-13.23-10.76-23.99-23.99-23.99h-1.72v25.71h25.71V93.91z M112.39,92.19V73.43
		c9.97,0.83,17.94,8.8,18.77,18.77H112.39z M112.39,92.19"/>
	<path fill="#00FFFF" d="M81.44,99.15c0,2.37,0.36,4.66,1.01,6.82h-8.57l-8.1-14.57c-0.03-0.07-0.09-0.1-0.14-0.17
		c-0.07-0.09-0.14-0.19-0.23-0.27c-0.08-0.08-0.17-0.13-0.26-0.18c-0.1-0.05-0.19-0.11-0.29-0.14c-0.12-0.04-0.24-0.06-0.35-0.08
		c-0.08-0.01-0.14-0.04-0.22-0.04H50.54c-0.95,0-1.72,0.76-1.72,1.72c0,0.95,0.77,1.71,1.72,1.71h12.72l8.09,14.57
		c0.08,0.14,0.18,0.27,0.29,0.38c0.01,0.01,0.01,0.01,0.02,0.01c0.13,0.14,0.29,0.24,0.47,0.32c0.04,0.02,0.09,0.04,0.14,0.06
		c0.18,0.07,0.38,0.12,0.59,0.12h10.92c3.86,8.1,12.1,13.74,21.65,13.74c13.23,0,23.99-10.76,23.99-23.99v-1.72h-22.27V75.16h-1.72
		C92.2,75.16,81.44,85.92,81.44,99.15L81.44,99.15z M103.71,78.66v22.21h22.2c-0.88,10.54-9.73,18.83-20.49,18.83
		c-7.59,0-14.23-4.15-17.79-10.29h5.82c0.95,0,1.72-0.77,1.72-1.72c0-0.95-0.77-1.72-1.72-1.72h-7.39
		c-0.76-2.14-1.19-4.42-1.19-6.82C84.88,88.4,93.18,79.55,103.71,78.66L103.71,78.66z M103.71,78.66"/>
	<path fill="#00FFFF" d="M143.24,61.34H93.46v-5.15c0-0.95-0.77-1.72-1.72-1.72s-1.72,0.77-1.72,1.72v5.15H40.24v72.1H87.6
		l-21.11,21.1c-0.67,0.67-0.67,1.76,0,2.43c0.34,0.33,0.77,0.5,1.22,0.5c0.44,0,0.88-0.17,1.21-0.5l21.1-21.11v16.46
		c0,0.95,0.77,1.71,1.72,1.71s1.72-0.76,1.72-1.71v-16.46l21.1,21.11c0.33,0.33,0.78,0.5,1.21,0.5c0.44,0,0.88-0.17,1.22-0.5
		c0.67-0.67,0.67-1.76,0-2.43l-21.11-21.1h47.36V61.34z M139.8,130.01H43.68V64.78h96.12V130.01z M139.8,130.01"/>
	<path fill="#00FFFF" d="M53.97,87.09c0.95,0,1.72-0.76,1.72-1.72v-6.86c0-0.95-0.77-1.72-1.72-1.72c-0.95,0-1.71,0.77-1.71,1.72
		v6.86C52.26,86.33,53.02,87.09,53.97,87.09L53.97,87.09z M53.97,87.09"/>
	<path fill="#00FFFF" d="M59.13,87.09c0.95,0,1.72-0.76,1.72-1.72v-6.86c0-0.95-0.77-1.72-1.72-1.72c-0.95,0-1.72,0.77-1.72,1.72
		v6.86C57.41,86.33,58.18,87.09,59.13,87.09L59.13,87.09z M59.13,87.09"/>
</g>
</svg>
