<?xml version="1.0" encoding="utf-8"?>
<!-- Generator: Adobe Illustrator 16.0.0, SVG Export Plug-In . SVG Version: 6.00 Build 0)  -->
<!DOCTYPE svg PUBLIC "-//W3C//DTD SVG 1.1//EN" "http://www.w3.org/Graphics/SVG/1.1/DTD/svg11.dtd">
<svg version="1.1" id="Capa_1" xmlns="http://www.w3.org/2000/svg" xmlns:xlink="http://www.w3.org/1999/xlink" x="0px" y="0px"
	 width="183.42px" height="211.52px" viewBox="0 0 183.42 211.52" enable-background="new 0 0 183.42 211.52" xml:space="preserve">
<polygon fill="none" stroke="#00FFFF" stroke-width="2" stroke-miterlimit="10" points="91.95,210.36 1.24,158.27 1,53.67 
	91.47,1.15 182.18,53.25 182.42,157.85 "/>
<path fill="#00FFFF" d="M139.36,84.8c-1.9-2.85-5.08-4.55-8.51-4.55h-0.88l-14.61,24.35V91.09v-1.55
	c0-18.78-15.28-34.06-34.06-34.06c-18.78,0-34.06,15.28-34.06,34.06v1.55v37.16c0,2.56,2.08,4.65,4.65,4.65h24.5
	c-3.41,1.78-7.04,3.13-10.79,3.97c-2.6,0.58-4.42,2.84-4.42,5.51c0,1.21,0.4,2.41,1.13,3.38c2.68,3.58,6.96,5.72,11.44,5.72h25.81
	c3.63,0,7-1.8,9.02-4.83c2.35-3.52,4.29-7.31,5.77-11.27l0.95-2.54c0.98-2.61,2.18-5.16,3.56-7.58l3.2-5.61
	c0.25-0.43,0.71-0.7,1.21-0.7c0.77,0,1.39,0.62,1.39,1.39v31.12h9.29v-13.65c0-4.2,0.42-8.41,1.24-12.54l0.11-0.53
	c1.12-5.57,2.97-10.97,5.51-16.05c1.6-3.19,2.44-6.76,2.44-10.32v-0.78C143.24,93.04,141.9,88.61,139.36,84.8z M81.31,58.57
	c17.08,0,30.97,13.89,30.97,30.97h-3.1c0-15.37-12.5-27.87-27.87-27.87c-15.37,0-27.87,12.5-27.87,27.87h-3.1
	C50.34,72.46,64.23,58.57,81.31,58.57z M106.08,89.54H56.53c0-13.66,11.11-24.77,24.77-24.77C94.97,64.77,106.08,75.88,106.08,89.54
	z M50.34,92.64h61.94v11.18l-21.68,5.42v-7.31H72.02v7.31l-21.68-5.42V92.64z M75.11,108.12v-3.1H87.5v3.1H75.11z M87.5,111.22v4.64
	c0,0.86-0.69,1.55-1.55,1.55h-9.29c-0.85,0-1.55-0.69-1.55-1.55v-4.64H87.5z M51.89,129.8c-0.85,0-1.55-0.69-1.55-1.55V107
	l21.68,5.42v3.44c0,2.56,2.08,4.65,4.65,4.65h9.29c2.56,0,4.65-2.08,4.65-4.65v-3.44l21.68-5.42v2.66h0.05l-2.31,3.85
	c-2.4,4-5.29,7.7-8.59,11c-2.41,2.41-5.61,3.73-9.01,3.73c-1.96,0-3.93-0.46-5.69-1.34l-0.99-0.5l-1.63,1.36
	c-0.9,0.75-1.85,1.45-2.81,2.13v-0.1H51.89z M123.76,115.91c-0.16-0.02-0.32-0.05-0.49-0.05c-1.61,0-3.1,0.87-3.9,2.26l-3.2,5.61
	c-1.46,2.56-2.73,5.26-3.77,8.03l-0.95,2.54c-0.45,1.19-0.95,2.36-1.48,3.51l-0.02-0.03c-3.78,2.37-7.9,4.06-12.25,5.03
	c-2.77,0.62-5.61,0.93-8.45,0.93H75.11v3.1h14.13c3.06,0,6.13-0.34,9.12-1c3.14-0.7,6.16-1.78,9.05-3.16
	c-0.46,0.77-0.92,1.52-1.42,2.27c-1.44,2.16-3.85,3.45-6.44,3.45H73.75c-2,0-3.94-0.56-5.64-1.55h3.91v-3.1H64.7
	c-0.26-0.41-0.42-0.88-0.42-1.36c0-1.2,0.82-2.22,1.99-2.48c7.26-1.61,14.12-4.98,19.83-9.75l0.09-0.08
	c1.97,0.84,4.1,1.28,6.23,1.28c4.23,0,8.21-1.65,11.2-4.64c3.48-3.48,6.53-7.38,9.05-11.6L131.7,83.4c2.06,0.25,3.92,1.38,5.09,3.13
	c1.55,2.33,2.58,4.94,3.05,7.66C133.83,100.9,128.41,108.19,123.76,115.91z M138.03,107.33c-2.66,5.32-4.6,10.98-5.77,16.83
	l-0.11,0.53c-0.86,4.32-1.3,8.74-1.3,13.14v10.55h-3.1v-28.03c0-1.18-0.46-2.25-1.21-3.05c3.99-6.6,8.57-12.86,13.59-18.72
	C140.1,101.6,139.39,104.62,138.03,107.33z"/>
</svg>
