<svg id="Capa_1" data-name="Capa 1" xmlns="http://www.w3.org/2000/svg" viewBox="0 0 183.42 211.52"><defs><style>.cls-1{fill:none;stroke:aqua;stroke-miterlimit:10;stroke-width:2px;}.cls-2{fill:aqua;}</style></defs><title>ico-programma-Mesa de trabajo 1</title><polygon class="cls-1" points="91.95 210.36 1.24 158.27 1 53.67 91.47 1.16 182.18 53.25 182.42 157.85 91.95 210.36"/><path class="cls-2" d="M92.88,64.53a1.33,1.33,0,1,0-1.33,1.33A1.33,1.33,0,0,0,92.88,64.53Z"/><path class="cls-2" d="M98.75,135.68h21.82a1.33,1.33,0,0,0,1.13-.63,1.34,1.34,0,0,0,.06-1.29l-6.27-12.54,2-8.38a1.35,1.35,0,0,0-.25-1.13,1.31,1.31,0,0,0-1-.5h-.86v-3a1.33,1.33,0,1,0-2.65,0v3h-6.08v-3a1.33,1.33,0,1,0-2.65,0v3h-.85a1.31,1.31,0,0,0-1,.5,1.29,1.29,0,0,0-.25,1.13l2,8.38-6.27,12.54a1.32,1.32,0,0,0,.05,1.29A1.34,1.34,0,0,0,98.75,135.68Zm15.78-21.82-1.46,6.08h-6.81l-1.46-6.08Zm-8.41,8.73h7.09L118.43,133H100.9Z"/><path class="cls-2" d="M145.23,150.48h-3V87.68h3a1.33,1.33,0,0,0,1.32-1.33V73.26a1.33,1.33,0,0,0-1.32-1.33h-3.55l-3.85-7.71V55.81c0-3-2.36-5.69-5-5.69H51.62c-3.15,0-5.65,1.82-6.22,4.54a5.47,5.47,0,0,0-.12,1.15v8.41l-3.86,7.71H37.88a1.34,1.34,0,0,0-1.33,1.33V86.35a1.34,1.34,0,0,0,1.33,1.33h3v62.8h-3a1.33,1.33,0,1,0,0,2.65H145.23a1.33,1.33,0,0,0,0-2.65ZM47.43,65.86h35.4a1.33,1.33,0,0,0,0-2.65H47.93v-7.4A2.93,2.93,0,0,1,48,55.2c.31-1.48,1.74-2.43,3.63-2.43h81.17a3,3,0,0,1,2.38,3v7.4H100.28a1.33,1.33,0,1,0,0,2.65h35.4l3,6.07H44.39ZM39.21,85V74.59H143.9V85Zm37.93,65.45H52.3V127H77.14Zm0-26.18H52.3V100.77H77.14Zm62.4,26.18H79.79v-51a1.33,1.33,0,0,0-1.33-1.32H51a1.33,1.33,0,0,0-1.33,1.32v51H43.57V87.68h96Z"/><path class="cls-2" d="M127.91,98.48H87.64a1.19,1.19,0,0,0-1.18,1.19v39.09A1.18,1.18,0,0,0,87.64,140h40.27a1.19,1.19,0,0,0,1.19-1.19V99.67A1.2,1.2,0,0,0,127.91,98.48Zm-1.19,39.09H88.83V100.86h37.89Z"/></svg>