<?xml version="1.0" encoding="utf-8"?>
<!-- Generator: Adobe Illustrator 16.0.0, SVG Export Plug-In . SVG Version: 6.00 Build 0)  -->
<!DOCTYPE svg PUBLIC "-//W3C//DTD SVG 1.1//EN" "http://www.w3.org/Graphics/SVG/1.1/DTD/svg11.dtd">
<svg version="1.1" id="Capa_1" xmlns="http://www.w3.org/2000/svg" xmlns:xlink="http://www.w3.org/1999/xlink" x="0px" y="0px"
	 width="56px" height="56px" viewBox="0 0 56 56" enable-background="new 0 0 56 56" xml:space="preserve">
<circle fill="#FF806D" cx="28" cy="28" r="28"/>
<path fill="#FFFFFF" d="M31.091,22.248c1.501,0,2.969,0.011,4.437-0.008c0.361-0.005,0.458,0.095,0.426,0.455
	c-0.135,1.563-0.262,3.128-0.351,4.695c-0.022,0.405-0.163,0.479-0.525,0.473c-1.149-0.021-2.298-0.008-3.448-0.008
	c-0.139,0-0.276,0-0.469,0c0,0.194,0,0.355,0,0.517c0,5.07,0,10.141,0,15.211c0,0.516-0.001,0.517-0.52,0.518
	c-1.929,0-3.857-0.01-5.785,0.008c-0.376,0.004-0.464-0.114-0.463-0.476c0.012-5.032,0.008-10.063,0.008-15.095
	c0-0.178,0-0.355,0-0.58c-1.209,0-2.389,0-3.59,0c-0.018-0.142-0.038-0.239-0.039-0.336c-0.002-1.661,0.006-3.32-0.008-4.981
	c-0.002-0.309,0.099-0.395,0.395-0.39c0.895,0.016,1.789,0.005,2.683,0.005c0.136,0,0.272,0,0.455,0c0-0.223-0.001-0.399,0-0.574
	c0.001-1.43-0.019-2.861,0.008-4.291c0.028-1.585,0.521-2.989,1.771-4.043c1.013-0.854,2.221-1.3,3.513-1.36
	c2.026-0.095,4.058-0.065,6.087-0.093c0.223-0.003,0.285,0.096,0.284,0.301c-0.004,1.672-0.007,3.345,0.002,5.019
	c0.001,0.278-0.141,0.305-0.36,0.304c-0.932-0.006-1.864-0.02-2.796,0.008c-0.322,0.009-0.655,0.098-0.96,0.213
	c-0.424,0.159-0.724,0.512-0.739,0.951C31.063,19.858,31.091,21.029,31.091,22.248z"/>
</svg>
