<?xml version="1.0" standalone="no"?>
<!DOCTYPE svg PUBLIC "-//W3C//DTD SVG 20010904//EN"
 "http://www.w3.org/TR/2001/REC-SVG-20010904/DTD/svg10.dtd">
<svg version="1.0" xmlns="http://www.w3.org/2000/svg"
 width="16.000000pt" height="16.000000pt" viewBox="0 0 16.000000 16.000000"
 preserveAspectRatio="xMidYMid meet">
<metadata>
Created by potrace 1.11, written by Peter Selinger 2001-2013
</metadata>
<g transform="translate(0.000000,16.000000) scale(0.010667,-0.010667)"
fill="#000000" stroke="none">
<path d="M712 1234 c-94 -66 -50 -234 62 -234 33 0 82 43 96 85 26 78 -25 165
-97 165 -21 0 -49 -7 -61 -16z m105 -19 c29 -20 47 -84 34 -118 -20 -52 -104
-65 -146 -22 -36 35 -31 87 13 138 19 21 70 22 99 2z"/>
<path d="M1136 1049 c-25 -29 -26 -35 -21 -112 4 -45 8 -92 11 -104 8 -38 22
-26 29 25 3 26 8 58 11 71 5 23 6 23 19 5 7 -11 21 -43 30 -72 l17 -52 69 0
c65 0 70 2 79 26 17 43 12 51 -42 65 -39 11 -57 22 -71 44 -59 95 -83 129 -93
132 -6 2 -23 -10 -38 -28z m87 -68 c44 -74 50 -79 93 -90 51 -13 58 -39 13
-55 -40 -14 -79 11 -110 68 -16 32 -35 53 -52 59 -34 11 -43 41 -23 72 9 14
20 25 24 25 5 0 29 -35 55 -79z"/>
<path d="M262 1058 c-7 -7 -12 -16 -12 -22 0 -6 5 -5 12 2 7 7 20 12 30 12 22
0 25 -38 3 -46 -8 -4 -15 -14 -15 -23 0 -10 -36 -36 -101 -71 -158 -85 -166
-79 106 -79 273 0 266 -6 108 80 -51 27 -95 53 -98 59 -3 5 3 18 15 30 24 24
25 34 4 54 -19 19 -36 20 -52 4z m69 -131 c40 -27 44 -56 9 -74 -27 -14 -249
-19 -236 -5 12 12 170 100 182 101 6 1 26 -9 45 -22z"/>
<path d="M727 937 c-19 -30 -49 -81 -66 -114 -35 -70 -66 -98 -125 -114 -56
-15 -117 -6 -177 25 -50 26 -119 35 -119 16 0 -5 16 -10 35 -10 21 0 60 -14
100 -36 64 -35 69 -36 148 -32 l82 4 0 -68 c0 -57 -3 -67 -15 -62 -116 44
-260 56 -320 26 -106 -53 -106 -200 0 -255 28 -14 51 -17 110 -14 92 6 155 26
289 94 l104 53 121 -60 c134 -66 213 -90 296 -90 68 0 125 30 151 80 57 107
-25 210 -167 210 -53 0 -173 -24 -226 -45 -16 -6 -17 -4 -7 25 6 17 9 48 5 68
l-5 37 92 0 c86 0 95 2 145 33 36 22 65 32 93 32 24 0 38 4 34 10 -12 19 -72
10 -121 -17 -41 -23 -61 -28 -120 -28 -90 0 -138 28 -179 107 -25 48 -112 178
-119 178 -2 0 -19 -24 -39 -53z m88 -48 c43 -84 65 -165 65 -237 0 -75 -28
-102 -104 -102 -43 0 -61 5 -83 24 -26 22 -27 29 -26 97 1 78 25 163 69 251
14 27 29 46 35 43 5 -4 25 -38 44 -76z m-354 -325 c54 -16 179 -89 179 -105 0
-15 -102 -91 -155 -115 -72 -34 -125 -40 -169 -19 -75 36 -107 129 -66 193 37
60 110 76 211 46z m761 6 c20 -6 49 -25 63 -42 24 -29 27 -38 23 -91 -4 -49
-9 -63 -36 -90 -30 -30 -37 -32 -96 -31 -75 1 -141 29 -223 96 -60 49 -60 52
32 107 89 54 166 70 237 51z"/>
</g>
</svg>
