<svg viewBox="0 0 186.66 215.24" xmlns="http://www.w3.org/2000/svg"><path d="m93.58 215.24-93.33-53.59-.25-107.62 93.08-54.03 93.33 53.59.25 107.63z" fill="#0ff"/><path d="m137.82 70.69h-22.23v-4a8.52 8.52 0 0 0 -8.51-8.51h-27.51a8.52 8.52 0 0 0 -8.51 8.51v4h-22.23a8.24 8.24 0 0 0 -8.23 8.23v57.89a8.24 8.24 0 0 0 8.23 8.19h89a8.25 8.25 0 0 0 8.24-8.23v-57.85a8.25 8.25 0 0 0 -8.24-8.23zm-59.57-4a1.32 1.32 0 0 1 1.32-1.32h27.51a1.32 1.32 0 0 1 1.32 1.32v4h-30.15zm59.57 71.14h-89a1 1 0 0 1 -1-1v-31.41c10.19 3.36 23.6 5.46 38.21 6v.13 1.58a5.4 5.4 0 0 0 5.39 5.39h3.89a5.4 5.4 0 0 0 5.39-5.39v-1.71c14.61-.53 28-2.64 38.21-6v31.41a1 1 0 0 1 -1.05 1z" fill="#fff"/></svg>