<svg viewBox="0 0 186.66 215.24" xmlns="http://www.w3.org/2000/svg"><path d="m93.58 215.24-93.33-53.59-.25-107.62 93.08-54.03 93.33 53.59.25 107.63z" fill="#0ff"/><path d="m88.09 65.08a33.77 33.77 0 0 0 -8.23 34.29l-38 38a3.07 3.07 0 0 0 -.9 2.17v17.46a3.06 3.06 0 0 0 3.04 3h17.35a3.07 3.07 0 0 0 2.18-.9l4.34-4.34a3.1 3.1 0 0 0 .88-2.53l-.54-4.67 6.47-.61a3 3 0 0 0 2.76-2.76l.61-6.47 4.67.54a3 3 0 0 0 2.4-.75 3.11 3.11 0 0 0 1-2.3v-5.72h5.61a3 3 0 0 0 2.17-.9l7.88-7.77a33.26 33.26 0 0 0 34.06-8 33.79 33.79 0 0 0 -47.75-47.74zm39.09 21.72a9.21 9.21 0 1 1 0-13 9.23 9.23 0 0 1 0 13z" fill="#fff"/></svg>